<?xml version="1.0" encoding="UTF-8"?>
<svg id="Layer_1" data-name="Layer 1" xmlns="http://www.w3.org/2000/svg" viewBox="0 0 1094.26 1109.56">
  <defs>
    <style>
      .cls-1 {
        fill: #5cc7ab;
      }
    </style>
  </defs>
  <path class="cls-1" d="M328.58,1041.81c66.08,27.33,134.8,40.31,202.67,40.31,202.21,0,396.81-115.26,491.16-309.65,62.56-124.96,73.7-269.33,30.69-395.73-41.01-124.7-147.6-245.35-271.58-307.36-112.13-56.09-234.38-64.48-353.58-24.29-19.37,6.54-29.77,27.55-23.23,46.91,6.53,19.38,27.49,29.79,46.91,23.25,100.05-33.76,202.67-26.72,296.78,20.35,130.28,65.16,207.67,183.08,234.49,264.62,36.26,106.55,26.29,233.32-26.88,339.53-109.15,224.85-372.34,327.48-600.07,233.29C144.76,892.36,35.73,641.4,117.92,424.79c14.98-40.23,42.26-93.77,65.39-118.26,49.45-52.36,106.56-71.48,169.84-56.77.31.07.62.06.93.12,27.07,7.4,52.5,23.19,74.19,46.68-116.37,107.45-158.19,276.23-158.19,400.86,0,220.74,104.21,244.57,149.02,244.57,104.65,0,169.66-125.33,169.66-327.08,0-115.63-20.61-220.73-58.2-298.06,34.25-17.45,72.3-26.27,113.28-26.27,84.22,0,143.02,53.46,143.02,130,0,81.28-79.24,130.39-134.44,133.31-20.87,1.74-36.01,16.9-36.01,36.05,0,22.45,16.47,39.38,38.29,39.38,87.16,0,208.73-79.41,208.73-208.73,0-118.44-92.35-204.39-219.59-204.39-55.9,0-108.21,12.49-155.71,37.16-43.04-52.76-103.94-82.77-168.91-82.77-1.24,0-2.43.27-3.65.4-55.81-.78-122.75,17.65-186.08,84.73-33.62,35.59-64.61,99.41-80.87,143.04-97.98,258.21,28.03,546.86,279.96,643.07ZM511.11,624.49c-2.18,160.01-48.48,246.36-90.92,246.36-50.53,0-73.54-89.91-73.54-173.44,0-107.39,37.33-249.43,120.33-335.24,29.64,65.84,45.24,157.98,44.13,262.32Z"/>
</svg>