<?xml version="1.0" standalone="no"?>
<!DOCTYPE svg PUBLIC "-//W3C//DTD SVG 20010904//EN"
 "http://www.w3.org/TR/2001/REC-SVG-20010904/DTD/svg10.dtd">
<svg version="1.0" xmlns="http://www.w3.org/2000/svg"
 width="700.000000pt" height="700.000000pt" viewBox="0 0 700.000000 700.000000"
 preserveAspectRatio="xMidYMid meet">
<metadata>
Created by potrace 1.14, written by Peter Selinger 2001-2017
</metadata>
<g transform="translate(0.000000,700.000000) scale(0.100000,-0.100000)"
fill="#000000" stroke="none">
<path d="M765 6994 c-11 -2 -45 -9 -75 -15 -232 -45 -439 -197 -577 -424 -26
-42 -55 -113 -81 -195 l-27 -85 -2 -2755 -1 -2755 24 -94 c40 -161 107 -283
218 -399 106 -111 235 -190 392 -239 l89 -28 2770 0 2770 0 79 23 c238 69 413
203 543 417 26 42 55 113 81 195 l27 85 0 2745 c0 1510 -3 2768 -7 2795 -26
178 -122 361 -259 489 -129 122 -231 177 -438 233 -26 8 -5489 14 -5526 7z
m1059 -1098 c55 -3 119 -8 143 -11 24 -3 64 -7 91 -11 96 -11 293 -42 315 -49
7 -2 28 -6 47 -9 119 -18 685 -186 725 -215 6 -4 37 -18 70 -31 66 -26 369
-172 452 -219 684 -383 1262 -956 1666 -1651 59 -102 209 -414 258 -535 75
-189 171 -491 195 -615 3 -14 10 -43 16 -65 5 -22 12 -49 14 -60 2 -11 6 -31
9 -45 2 -14 7 -41 10 -60 3 -19 8 -42 10 -50 2 -8 6 -37 10 -65 3 -27 8 -63
10 -80 10 -72 23 -181 23 -195 0 -8 3 -54 7 -102 13 -164 12 -344 -2 -399 -83
-325 -471 -443 -717 -218 -105 96 -142 190 -145 374 -3 135 -7 200 -15 271 -3
27 -8 74 -11 104 -3 30 -8 62 -10 70 -2 8 -7 40 -10 70 -4 30 -8 57 -10 60 -2
3 -6 24 -10 47 -22 152 -119 469 -204 673 -126 298 -327 636 -503 846 -292
347 -570 590 -913 798 -133 81 -483 256 -512 256 -5 0 -20 7 -36 15 -40 21
-286 99 -402 129 -104 26 -128 31 -210 45 -27 5 -61 12 -75 15 -14 3 -45 8
-70 11 -25 3 -54 7 -65 9 -20 4 -164 17 -240 21 -22 2 -89 4 -148 5 -175 4
-261 34 -357 126 -256 244 -123 682 225 743 45 8 218 6 369 -3z m-45 -1751
c83 -7 282 -40 346 -57 22 -5 49 -12 60 -14 45 -9 255 -78 335 -111 194 -79
447 -222 585 -330 146 -115 312 -270 415 -388 42 -47 170 -213 170 -220 0 -2
20 -33 45 -68 25 -36 45 -68 45 -72 0 -4 9 -19 19 -34 20 -28 119 -221 146
-286 18 -43 85 -223 89 -240 2 -5 5 -17 9 -25 6 -17 37 -133 42 -158 2 -9 10
-52 19 -94 52 -249 66 -545 31 -648 -47 -141 -161 -251 -300 -290 -72 -20
-189 -17 -257 8 -95 34 -187 107 -233 187 -50 84 -58 125 -70 350 -4 78 -14
146 -40 280 -3 17 -24 84 -46 150 -56 168 -155 363 -243 477 -12 14 -32 41
-46 60 -41 55 -231 242 -300 295 -277 212 -618 341 -950 358 -259 14 -310 29
-416 125 -88 80 -137 192 -137 316 0 119 38 218 117 303 61 66 174 124 261
133 42 5 213 1 304 -7z m96 -1750 c65 -11 180 -60 244 -104 102 -69 192 -180
237 -292 138 -340 -26 -725 -367 -858 -176 -69 -361 -60 -539 27 -105 51 -231
177 -282 282 -75 152 -92 303 -52 460 30 120 81 209 173 301 104 104 227 168
354 186 23 3 43 6 45 8 5 5 145 -3 187 -10z"/>
</g>
</svg>
